<svg width="305" height="287" viewBox="0 0 305 287" fill="none" xmlns="http://www.w3.org/2000/svg">
<circle cx="161.389" cy="143.5" r="143.5" fill="#FF6643"/>
<path d="M1 225.847C12.1564 214.69 18.1822 220.716 29.3386 209.56C40.495 198.403 34.4692 192.377 45.6256 181.221C56.782 170.065 62.8078 176.091 73.9642 164.934C85.1206 153.778 79.0948 147.752 90.2512 136.595C101.408 125.439 107.433 131.465 118.59 120.309" stroke="#27282C" stroke-miterlimit="10"/>
<path d="M85.8887 181.735C101.162 166.462 109.412 174.711 124.685 159.438C139.959 144.164 131.709 135.915 146.983 120.641C162.256 105.368 170.506 113.617 185.779 98.3439C201.053 83.0704 192.803 74.8208 208.077 59.5473C223.35 44.2738 231.6 52.5234 246.873 37.2499" stroke="#27282C" stroke-miterlimit="10"/>
</svg>
