<svg xmlns="http://www.w3.org/2000/svg" width="76" height="88" viewBox="0 0 76 88" fill="none">
  <path fill-rule="evenodd" clip-rule="evenodd" d="M41.0763 68.7189C59.7358 68.7189 74.9357 53.519 74.9357 34.8595C74.9357 16.2 59.7358 1 41.0763 1C22.4168 1 7.2168 16.2 7.2168 34.8595C7.2168 53.519 22.4536 68.7189 41.0763 68.7189Z" stroke="#FF6643" stroke-miterlimit="22.9256"/>
  <path fill-rule="evenodd" clip-rule="evenodd" d="M41.0757 59.2608C54.5091 59.2608 65.4766 48.2933 65.4766 34.8599C65.4766 21.4265 54.5091 10.459 41.0757 10.459C27.6423 10.459 16.6748 21.4265 16.6748 34.8599C16.6748 48.2933 27.6423 59.2608 41.0757 59.2608Z" stroke="#FF6643" stroke-miterlimit="22.9256"/>
  <path fill-rule="evenodd" clip-rule="evenodd" d="M41.0766 43.9871C46.1187 43.9871 50.2039 39.9019 50.2039 34.8598C50.2039 29.8176 46.1187 25.7324 41.0766 25.7324C36.0344 25.7324 31.9492 29.8176 31.9492 34.8598C31.9492 39.9019 36.0712 43.9871 41.0766 43.9871Z" stroke="#FF6643" stroke-miterlimit="22.9256"/>
  <path d="M45.7137 86.9011L13.584 73.5781" stroke="#FF6643" stroke-miterlimit="22.9256"/>
  <path fill-rule="evenodd" clip-rule="evenodd" d="M1.51159 72.3262C-1.46952 79.4662 9.4244 83.993 12.3687 76.8531L15.0186 70.4492C17.9997 63.3093 7.10576 58.7824 4.16146 65.9224L1.51159 72.3262Z" stroke="#FF6643" stroke-miterlimit="22.9256"/>
</svg>