<svg width="25" height="30" viewBox="0 0 25 30" fill="none" xmlns="http://www.w3.org/2000/svg">
<path d="M17.8401 16.1414C19.752 16.1414 21.4193 16.0506 21.4193 14.2688C21.4193 13.0998 20.6968 11.0002 19.663 9.69498C19.9187 9.21831 20.0632 8.68489 20.0632 8.11743C20.0632 6.59662 19.0295 5.29144 17.5845 4.80342C17.5845 4.73533 17.5956 4.65588 17.5956 4.58778C17.5956 2.71515 16.1617 1.19434 14.3943 1.19434C13.8052 1.19434 13.2605 1.36458 12.7937 1.64831C12.3269 1.36458 11.7711 1.19434 11.1931 1.19434C9.42572 1.19434 7.99182 2.71515 7.99182 4.58778C7.99182 4.65588 7.99182 4.72398 8.00294 4.79207C5.97993 5.37089 4.50157 7.13003 4.50157 9.20696C4.50157 9.76308 4.60161 10.2965 4.80169 10.7845C4.15699 11.9762 3.75684 13.3835 3.75684 14.2574C3.75684 16.0393 5.42415 16.1301 7.33601 16.1301" stroke="white" stroke-miterlimit="10" stroke-linecap="round" stroke-linejoin="round"/>
<path d="M24.2198 28.8636V26.1738C24.2198 24.3125 23.4751 23.3819 20.8963 22.7804L17.9729 22.2129C16.7614 22.2129 15.7832 21.2142 15.7832 19.9771V17.5029" stroke="white" stroke-miterlimit="10" stroke-linecap="round" stroke-linejoin="round"/>
<path d="M9.33659 17.5029V20.0111C9.33659 21.2369 8.36955 22.2243 7.16908 22.2243L4.32352 22.7917C1.91147 23.3819 1 24.3125 1 26.1852V28.875" stroke="white" stroke-miterlimit="10" stroke-linecap="round" stroke-linejoin="round"/>
<path d="M7.16895 22.2246C7.16895 22.2246 8.74734 24.5512 12.5822 24.5512C16.417 24.5512 17.9843 22.2246 17.9843 22.2246" stroke="white" stroke-miterlimit="10" stroke-linecap="round" stroke-linejoin="round"/>
<path d="M18.451 11.1588C18.451 10.6141 18.162 10.1374 17.7396 9.92177C17.6396 8.33286 15.7833 7.98103 15.7833 7.98103C12.6376 7.98103 12.9377 4.57623 11.4149 5.20045C10.3256 8.60524 9.79204 8.65064 7.81349 10.1715C7.42445 10.3984 6.82422 10.8524 6.82422 11.3745C6.82422 11.9419 7.12434 12.9861 7.55784 13.1904C7.92465 16.0958 9.42523 18.865 12.3597 18.865C15.183 18.865 17.2172 15.9256 17.6729 12.9747C18.1286 12.7931 18.451 11.7377 18.451 11.1588Z" stroke="white" stroke-miterlimit="10" stroke-linecap="round" stroke-linejoin="round"/>
<path d="M12.582 24.5508V28.8635" stroke="white" stroke-miterlimit="10" stroke-linecap="round" stroke-linejoin="round"/>
</svg>
