<svg width="24" height="30" viewBox="0 0 24 30" fill="none" xmlns="http://www.w3.org/2000/svg">
<path d="M17.4795 28.7317L17.9875 28.0853L18.7071 26.3761C18.7071 26.3761 23.1732 21.1611 23.2049 20.2079C23.2367 19.2548 23.3108 14.7847 23.2684 13.8864C23.2261 12.988 21.3635 13.4372 21.2682 14.8286C21.1836 16.22 21.0037 18.5317 21.0037 18.5317L17.7335 22.7059" stroke="white" stroke-miterlimit="10" stroke-linecap="round" stroke-linejoin="round"/>
<path d="M13.5225 28.0085L14.1892 23.3632C14.1892 23.3632 16.2211 20.8433 17.7769 19.178C19.3326 17.5017 20.4438 19.2109 20.4438 19.2109" stroke="white" stroke-miterlimit="10" stroke-linecap="round" stroke-linejoin="round"/>
<path d="M6.80169 28.7317L6.2937 28.0853L5.57405 26.3761C5.57405 26.3761 1.10799 21.1611 1.07624 20.2079C1.04449 19.2548 0.970407 14.7847 1.01274 13.8864C1.05507 12.988 2.9177 13.4372 3.01294 14.8286C3.09761 16.22 3.27752 18.5317 3.27752 18.5317L6.5477 22.7059" stroke="white" stroke-miterlimit="10" stroke-linecap="round" stroke-linejoin="round"/>
<path d="M10.7602 28.0085L10.0935 23.3632C10.0935 23.3632 8.06152 20.8433 6.50581 19.178C4.95009 17.5017 3.83887 19.2109 3.83887 19.2109" stroke="white" stroke-miterlimit="10" stroke-linecap="round" stroke-linejoin="round"/>
<path d="M12.302 16.4261C16.3572 16.3307 19.5698 12.8503 19.4777 8.65228C19.3856 4.45428 16.0236 1.12845 11.9684 1.22381C7.91331 1.31918 4.70065 4.79963 4.79277 8.99762C4.88489 13.1956 8.2469 16.5215 12.302 16.4261Z" stroke="white" stroke-miterlimit="10" stroke-linecap="round" stroke-linejoin="round"/>
<path d="M11.7441 1.23264C11.8182 1.23264 11.8923 1.22168 11.9664 1.22168C13.9243 1.22168 15.5117 2.91985 15.5117 5.02339C15.5117 7.12693 13.9243 8.8251 11.9664 8.8251" stroke="white" stroke-miterlimit="10" stroke-linecap="round" stroke-linejoin="round"/>
<path d="M12.3262 16.4069C12.2521 16.4069 12.178 16.4179 12.1039 16.4179C10.1461 16.4179 8.55859 14.7197 8.55859 12.6162C8.55859 10.5126 10.1461 8.81445 12.1039 8.81445" stroke="white" stroke-miterlimit="10" stroke-linecap="round" stroke-linejoin="round"/>
<path d="M12.5081 5.98003C13.0589 5.74384 13.3205 5.09011 13.0923 4.5199C12.8642 3.94968 12.2327 3.67891 11.6819 3.9151C11.1311 4.1513 10.8695 4.80502 11.0977 5.37524C11.3258 5.94545 11.9573 6.21623 12.5081 5.98003Z" stroke="white" stroke-miterlimit="10" stroke-linecap="round" stroke-linejoin="round"/>
<path d="M12.307 13.6041C12.8578 13.3679 13.1193 12.7141 12.8912 12.1439C12.663 11.5737 12.0315 11.3029 11.4807 11.5391C10.9299 11.7753 10.6684 12.429 10.8965 12.9993C11.1247 13.5695 11.7561 13.8402 12.307 13.6041Z" stroke="white" stroke-miterlimit="10" stroke-linecap="round" stroke-linejoin="round"/>
</svg>
