<svg width="25" height="34" viewBox="0 0 25 34" fill="none" xmlns="http://www.w3.org/2000/svg">
<path d="M4.04092 25.5881V26.9324" stroke="white" stroke-miterlimit="10" stroke-linecap="round" stroke-linejoin="round"/>
<path d="M15.4741 19.0056C15.0294 17.8885 14.0113 16.7714 12.7124 16.7474L11.2379 16.7234L9.77508 19.1378L9.70486 18.9216V18.8855L9.63465 19.1017L8.17186 16.6874L6.69737 16.7114C5.22288 16.7354 4.825 17.4922 3.88882 18.9576" stroke="white" stroke-miterlimit="10" stroke-linecap="round" stroke-linejoin="round"/>
<path d="M15.392 26.9694V25.552" stroke="white" stroke-miterlimit="10" stroke-linecap="round" stroke-linejoin="round"/>
<path d="M9.71648 15.1138C11.3197 15.1138 12.6303 13.6124 12.6303 11.7746C12.6303 9.92474 11.3314 8.93978 9.72818 8.93978C8.12496 8.93978 6.82601 9.92474 6.82601 11.7746C6.8026 13.6124 8.11326 15.1138 9.71648 15.1138Z" stroke="white" stroke-miterlimit="10" stroke-linecap="round" stroke-linejoin="round"/>
<path d="M4.35692 18.1768L1.2441 23.546C0.881333 23.9785 0.928142 24.6391 1.34942 25.0115C1.36113 25.0235 1.38453 25.0355 1.39623 25.0475C1.58347 25.2637 1.85262 25.4079 2.15688 25.4079H6.72078C7.28249 25.4079 7.73888 24.9394 7.73888 24.3629C7.73888 23.7863 7.28249 23.3178 6.72078 23.3178H4.12287L5.81971 20.2548" stroke="white" stroke-miterlimit="10" stroke-linecap="round" stroke-linejoin="round"/>
<path d="M14.9708 18.1528L18.0836 23.5221C18.4464 23.9545 18.3996 24.6151 17.9783 24.9875C17.9666 24.9995 17.9432 25.0115 17.9315 25.0235C17.7442 25.2398 17.4751 25.3839 17.1708 25.3839H12.6069C12.0452 25.3839 11.5888 24.9154 11.5888 24.3389C11.5888 23.7623 12.0452 23.2939 12.6069 23.2939H15.2048L13.508 20.2308" stroke="white" stroke-miterlimit="10" stroke-linecap="round" stroke-linejoin="round"/>
<path d="M17.2527 32.9873H2.05145C0.272696 32.9873 1.23229 31.0895 4.18127 30.7532C7.13025 30.4168 17.2527 27.9424 17.2527 27.9424C19.0315 27.9424 20.4826 29.0715 20.4826 30.4649C20.4709 31.8582 19.0198 32.9873 17.2527 32.9873Z" stroke="white" stroke-miterlimit="10" stroke-linecap="round" stroke-linejoin="round"/>
<path d="M21.606 15.8225H24.3794" stroke="white" stroke-miterlimit="10" stroke-linecap="round" stroke-linejoin="round"/>
<path d="M9.96214 1V3.84679" stroke="white" stroke-miterlimit="10" stroke-linecap="round" stroke-linejoin="round"/>
<path d="M3.83018 5.62449L2.07483 3.05397" stroke="white" stroke-miterlimit="10" stroke-linecap="round" stroke-linejoin="round"/>
<path d="M17.3697 2.80176L15.7548 5.44435" stroke="white" stroke-miterlimit="10" stroke-linecap="round" stroke-linejoin="round"/>
<path d="M19.9443 9.63553L22.4486 8.37518" stroke="white" stroke-miterlimit="10" stroke-linecap="round" stroke-linejoin="round"/>
</svg>
