<svg width="24" height="34" viewBox="0 0 24 34" fill="none" xmlns="http://www.w3.org/2000/svg">
<path d="M16.3955 32.7824L16.9743 32.0584L17.7962 30.1477C17.7962 30.1477 22.8317 24.3206 22.8664 23.2525C22.9011 22.1844 22.9821 17.2 22.9358 16.1912C22.8895 15.1825 20.7827 15.6928 20.6901 17.2475C20.5859 18.8021 20.4007 21.3774 20.4007 21.3774L16.7196 26.0415" stroke="white" stroke-miterlimit="10" stroke-linecap="round" stroke-linejoin="round"/>
<path d="M11.9395 31.9869L12.6919 26.7888C12.6919 26.7888 14.9839 23.9762 16.7434 22.1129C18.5029 20.2497 19.7531 22.1485 19.7531 22.1485" stroke="white" stroke-miterlimit="10" stroke-linecap="round" stroke-linejoin="round"/>
<path d="M8.81367 31.9869L8.06124 26.7888C8.06124 26.7888 5.76923 23.9762 4.00971 22.1129C2.25019 20.2497 1 22.1485 1 22.1485" stroke="white" stroke-miterlimit="10" stroke-linecap="round" stroke-linejoin="round"/>
<path d="M16.8242 13.4374C16.8242 17.0927 13.9418 20.0478 10.3764 20.0478C6.81109 20.0478 3.92871 17.0927 3.92871 13.4374C3.92871 8.23934 10.3764 1 10.3764 1C10.3764 1 16.8242 8.12066 16.8242 13.4374Z" stroke="white" stroke-miterlimit="10" stroke-linecap="round" stroke-linejoin="round"/>
<path d="M10.376 6.4707V23.6671" stroke="white" stroke-miterlimit="10" stroke-linecap="round" stroke-linejoin="round"/>
<path d="M7.07715 14.0664L10.492 17.247L13.6754 14.0664" stroke="white" stroke-miterlimit="10" stroke-linecap="round" stroke-linejoin="round"/>
<path d="M7.72559 11.0996L10.4691 13.663L13.0389 11.0996" stroke="white" stroke-miterlimit="10" stroke-linecap="round" stroke-linejoin="round"/>
<path d="M8.50098 8.12109L10.4457 9.93686L12.2515 8.12109" stroke="white" stroke-miterlimit="10" stroke-linecap="round" stroke-linejoin="round"/>
</svg>
