<svg xmlns="http://www.w3.org/2000/svg" width="73" height="87" viewBox="0 0 73 87" fill="none">
  <path d="M2.80273 63.5067C21.0357 69.2144 18.935 47.4934 20.5601 35.8798C21.3528 30.1721 24.3652 29.8154 27.1794 29.6568C32.4511 29.3001 33.6006 25.8517 32.689 20.8574" stroke="#27282C" stroke-miterlimit="22.9256"/>
  <path d="M70.3042 63.5067C52.0712 69.2144 54.1719 47.4934 52.5468 35.8798C51.7541 30.1721 48.7417 29.8154 45.9275 29.6568C40.6558 29.3001 39.5063 25.8517 40.4179 20.8574" stroke="#27282C" stroke-miterlimit="22.9256"/>
  <path d="M36.5732 84.7131C41.5279 84.7131 46.4825 85.1491 53.0622 86.0211C59.3645 86.8535 65.6271 86.6949 68.9566 84.7923C72.6825 82.6519 73.4356 78.2126 69.3926 75.7155C65.6667 73.4166 59.8797 72.3464 54.5684 70.9194C48.2661 69.215 42.9151 66.2423 42.2413 59.2265C41.5675 52.3694 46.0861 45.5914 45.4123 41.707" stroke="#27282C" stroke-miterlimit="22.9256"/>
  <path d="M27.7338 41.707C27.06 45.5914 31.5786 52.3694 30.9047 59.2265C30.3102 65.2117 26.3465 68.2241 21.273 70.0474C15.7238 72.0293 8.66843 72.6238 3.75346 75.6759C-0.289507 78.1333 0.344683 82.8898 4.18946 84.7527C8.90625 87.0516 14.7329 86.6553 20.4406 84.8716C29.3193 82.097 35.1855 76.2704 48.0279 76.8253" stroke="#27282C" stroke-miterlimit="22.9256"/>
  <path fill-rule="evenodd" clip-rule="evenodd" d="M36.5732 22.4436C33.4419 22.4436 30.9844 19.6294 29.6367 16.2206C28.9629 14.5162 28.5665 12.6136 28.4476 10.83C27.7738 -2.2502 45.3329 -2.28984 44.6988 10.7903C44.6195 12.574 44.2231 14.4369 43.5493 16.181C42.2016 19.6294 39.7441 22.4436 36.5732 22.4436Z" stroke="#27282C" stroke-miterlimit="22.9256"/>
</svg>