<svg xmlns="http://www.w3.org/2000/svg" width="81" height="84" viewBox="0 0 81 84" fill="none">
  <path fill-rule="evenodd" clip-rule="evenodd" d="M70.6716 82.541L79.1795 53.4788C80.73 48.4297 80.412 44.8516 79.2193 40.0808L74.4882 21.3157L53.6557 1C49.4813 3.42516 49.0837 7.7984 52.1847 11.2572L62.1637 22.3891C64.8671 25.5299 65.1454 28.1141 64.5888 31.4934L62.3227 44.8516C61.5276 49.5032 54.9677 48.549 55.5641 43.8975L57.0748 32.8451C57.7507 27.796 55.1665 23.9794 50.2764 23.065L45.2671 52.7632C44.3129 58.4882 44.1141 62.3446 45.9032 68.0298L50.5547 82.7L70.6716 82.541Z" stroke="#FF6643" stroke-miterlimit="22.9256"/>
  <path fill-rule="evenodd" clip-rule="evenodd" d="M10.5194 82.541L2.05121 53.4788C0.500702 48.4297 0.818756 44.8516 2.01146 40.0808L6.7425 21.3157L27.5353 1C31.7097 3.42516 32.1073 7.79839 29.0063 11.2572L19.0273 22.3891C16.3239 25.5299 16.0456 28.1141 16.6022 31.4934L18.8683 44.8516C19.6634 49.5032 26.2233 48.549 25.6269 43.8975L24.1162 32.8451C23.4403 27.796 26.0643 23.9396 30.9146 23.0252L35.9239 52.7235C36.8781 58.4484 37.0769 62.3048 35.2878 67.99L30.6363 82.6603L10.5194 82.541Z" stroke="#FF6643" stroke-miterlimit="22.9256"/>
</svg>