<svg xmlns="http://www.w3.org/2000/svg" width="92" height="92" viewBox="0 0 92 92" fill="none">
  <path d="M69.7402 59.1921C76.9697 46.1498 72.2575 29.7163 59.2152 22.4869C46.173 15.2574 29.7395 19.9696 22.51 33.0119C15.2806 46.0541 19.9928 62.4876 33.035 69.7171C46.0773 76.9465 62.5108 72.2343 69.7402 59.1921Z" stroke="#27282C" stroke-miterlimit="22.9256"/>
  <path d="M32.835 14.6381C34.1713 9.25359 41.4816 6.22727 46.1193 1C52.3292 7.9566 63.2553 11.0222 58.4211 21.0444" stroke="#27282C" stroke-miterlimit="22.9256"/>
  <path d="M14.6377 32.8363C12.7905 28.0807 15.3059 21.3992 14.9522 14.9535C24.2669 15.4644 34.1319 9.92275 37.8264 20.4166" stroke="#27282C" stroke-miterlimit="22.9256"/>
  <path d="M14.6381 59.4032C9.25359 58.0276 6.22727 50.7566 1 46.1189C7.9566 39.909 11.0222 28.9829 21.0444 33.8171" stroke="#27282C" stroke-miterlimit="22.9256"/>
  <path d="M32.8353 77.5617C28.0797 79.4089 21.3982 76.8936 14.9525 77.2473C15.4635 67.9325 9.92178 58.0675 20.4156 54.373" stroke="#27282C" stroke-miterlimit="22.9256"/>
  <path d="M59.4042 77.5626C58.0286 82.9471 50.7576 85.9734 46.1199 91.2007C39.91 84.2441 28.9838 81.1785 33.8181 71.1562" stroke="#27282C" stroke-miterlimit="22.9256"/>
  <path d="M77.5617 59.4043C79.4089 64.1599 76.8936 70.8414 77.2473 77.2871C67.9325 76.7761 58.0675 82.3178 54.373 71.824" stroke="#27282C" stroke-miterlimit="22.9256"/>
  <path d="M77.5616 32.8359C82.9461 34.1722 85.9724 41.4826 91.1997 46.1203C84.2431 52.3301 81.1775 63.2563 71.1553 58.4221" stroke="#27282C" stroke-miterlimit="22.9256"/>
  <path d="M71.7849 37.8264C82.2788 34.1319 76.7371 24.2669 77.248 14.9522C70.8024 15.3059 64.1209 12.7905 59.3652 14.6377" stroke="#27282C" stroke-miterlimit="22.9256"/>
  <path d="M43.1328 33.5424C43.4472 32.8743 43.801 32.2061 44.1547 31.5773C44.5084 30.9091 44.8621 30.2803 45.1766 29.6907C45.491 29.0619 45.8054 28.4724 46.0805 27.8828C46.3556 28.4724 46.6701 29.0619 46.9845 29.6907C47.2989 30.3196 47.6526 30.9484 48.0064 31.5773C48.3601 32.2454 48.7138 32.8743 49.0282 33.5424" stroke="#27282C" stroke-miterlimit="22.9256"/>
  <path d="M43.1328 58.6562C43.4472 59.3244 43.801 59.9925 44.1547 60.6214C44.5084 61.2895 44.8621 61.9184 45.1766 62.5079C45.491 63.1368 45.8054 63.7263 46.0805 64.3159C46.3556 63.7263 46.6701 63.1368 46.9845 62.5079C47.2989 61.8791 47.6526 61.2502 48.0064 60.6214C48.3601 59.9532 48.7138 59.3244 49.0282 58.6562" stroke="#27282C" stroke-miterlimit="22.9256"/>
  <path d="M35.1143 39.3207C34.8785 38.6132 34.6427 37.9058 34.4462 37.1983C34.2497 36.4909 34.0138 35.7834 33.8173 35.1153C33.6208 34.4471 33.385 33.779 33.1885 33.1895C33.778 33.4253 34.4462 33.6218 35.1143 33.8183C35.7825 34.0148 36.4899 34.2113 37.1974 34.4471C37.9048 34.6437 38.6123 34.8795 39.3197 35.1153" stroke="#27282C" stroke-miterlimit="22.9256"/>
  <path d="M52.8799 57.0843C53.5873 57.3201 54.2948 57.5559 55.0022 57.7525C55.7097 57.949 56.4171 58.1848 57.0853 58.3813C57.7534 58.5778 58.4216 58.8136 59.0111 59.0101C58.7753 58.4206 58.5788 57.7525 58.3823 57.0843C58.1858 56.4162 57.9892 55.7087 57.7534 55.0013C57.5569 54.2938 57.3211 53.5864 57.0853 52.8789" stroke="#27282C" stroke-miterlimit="22.9256"/>
  <path d="M33.5424 49.0673C32.8743 48.7529 32.2061 48.3991 31.5773 48.0454C30.9091 47.6917 30.2803 47.338 29.6907 47.0236C29.0619 46.7091 28.4724 46.3947 27.8828 46.1196C28.4724 45.8445 29.0619 45.53 29.6907 45.2156C30.3196 44.9012 30.9484 44.5475 31.5773 44.1937C32.2454 43.84 32.8743 43.4863 33.5424 43.1719" stroke="#27282C" stroke-miterlimit="22.9256"/>
  <path d="M58.6572 49.0673C59.3254 48.7529 59.9935 48.3991 60.6224 48.0454C61.2905 47.6917 61.9194 47.338 62.5089 47.0236C63.1377 46.7091 63.7273 46.3947 64.3168 46.1196C63.7273 45.8445 63.1377 45.53 62.5089 45.2156C61.8801 44.9012 61.2512 44.5475 60.6224 44.1937C59.9542 43.84 59.3254 43.4863 58.6572 43.1719" stroke="#27282C" stroke-miterlimit="22.9256"/>
  <path d="M39.3197 57.0843C38.6123 57.3201 37.9048 57.5559 37.1974 57.7525C36.4899 57.949 35.7825 58.1848 35.1143 58.3813C34.4462 58.5778 33.778 58.8136 33.1885 59.0101C33.4243 58.4206 33.6208 57.7525 33.8173 57.0843C34.0138 56.4162 34.2104 55.7087 34.4462 55.0013C34.6427 54.2938 34.8785 53.5864 35.1143 52.8789" stroke="#27282C" stroke-miterlimit="22.9256"/>
  <path d="M57.0853 39.3207C57.3211 38.6132 57.5569 37.9058 57.7534 37.1983C57.9499 36.4909 58.1858 35.7834 58.3823 35.1153C58.5788 34.4471 58.8146 33.779 59.0111 33.1895C58.4216 33.4253 57.7534 33.6218 57.0853 33.8183C56.4171 34.0148 55.7097 34.2113 55.0022 34.4471C54.2948 34.6437 53.5873 34.8795 52.8799 35.1153" stroke="#27282C" stroke-miterlimit="22.9256"/>
  <path fill-rule="evenodd" clip-rule="evenodd" d="M46.1199 51.3081C48.989 51.3081 51.3471 48.9499 51.3471 46.0808C51.3471 43.2117 48.989 40.8535 46.1199 40.8535C43.2507 40.8535 40.8926 43.2117 40.8926 46.0808C40.8926 48.9892 43.2507 51.3081 46.1199 51.3081Z" stroke="#27282C" stroke-miterlimit="22.9256"/>
</svg>