<svg width="43" height="30" viewBox="0 0 43 30" fill="none" xmlns="http://www.w3.org/2000/svg">
<path fill-rule="evenodd" clip-rule="evenodd" d="M17.4231 15C18.9274 16.4539 19.6795 18.4929 19.6795 21.117C19.6795 23.6702 18.8419 25.7979 17.1667 27.5C15.5256 29.1667 13.1667 30 10.0897 30C7.01282 30 4.63675 28.9362 2.96154 26.8085C1.32051 24.6809 0.5 21.9326 0.5 18.5638C0.5 15.3723 1.25214 12.5709 2.75641 10.1596C4.29487 7.71277 6.2094 5.65603 8.5 3.98936C10.7906 2.32269 13.0641 0.992908 15.3205 0L17.1667 3.98936C15.6966 4.59219 14.1923 5.44326 12.6538 6.54255C11.1496 7.64184 9.88462 8.86525 8.85897 10.2128C7.83333 11.5603 7.30342 12.8901 7.26923 14.2021C7.40598 13.9894 7.85043 13.7057 8.60257 13.3511C9.3547 12.9965 10.312 12.8191 11.4744 12.8191C13.9359 12.8191 15.9188 13.5461 17.4231 15ZM40.2436 15C41.7479 16.4539 42.5 18.4929 42.5 21.117C42.5 23.6702 41.6624 25.7979 39.9872 27.5C38.3462 29.1667 35.9872 30 32.9103 30C29.8333 30 27.4573 28.9362 25.7821 26.8085C24.141 24.6809 23.3205 21.9326 23.3205 18.5638C23.3205 15.3723 24.0727 12.5709 25.5769 10.1596C27.1154 7.71277 29.0299 5.65603 31.3205 3.98936C33.6111 2.32269 35.8846 0.992908 38.141 0L39.9872 3.98936C38.5171 4.59219 37.0128 5.44326 35.4744 6.54255C33.9701 7.64184 32.7051 8.86525 31.6795 10.2128C30.6539 11.5603 30.1239 12.8901 30.0898 14.2021C30.2265 13.9894 30.6709 13.7057 31.4231 13.3511C32.1752 12.9965 33.1325 12.8191 34.2949 12.8191C36.7564 12.8191 38.7393 13.5461 40.2436 15Z" fill="#323232"/>
</svg>
