<svg width="21" height="20" viewBox="0 0 21 20" fill="none" xmlns="http://www.w3.org/2000/svg">
<mask id="mask0_345_595" style="mask-type:luminance" maskUnits="userSpaceOnUse" x="0" y="0" width="21" height="20">
<rect x="0.5" width="20" height="20" fill="white"/>
</mask>
<g mask="url(#mask0_345_595)">
<path fill-rule="evenodd" clip-rule="evenodd" d="M13.0257 6.74986C13.1224 6.94569 13.3091 7.08236 13.5257 7.11402L17.8466 7.73819C18.0216 7.76152 18.1791 7.85319 18.2866 7.99319C18.4882 8.25569 18.4574 8.62733 18.2157 8.85317L15.0841 11.8815C14.9249 12.0315 14.8541 12.2515 14.8957 12.4657L15.6457 16.739C15.6982 17.0932 15.4566 17.4248 15.1024 17.4823C14.9557 17.5048 14.8057 17.4815 14.6724 17.4157L10.8241 15.3982C10.6307 15.2932 10.3991 15.2932 10.2057 15.3982L6.32909 17.4265C6.00493 17.5915 5.60826 17.469 5.43159 17.1515C5.36409 17.0232 5.34076 16.8773 5.36409 16.7348L6.11409 12.4615C6.15159 12.2482 6.08076 12.029 5.92576 11.8782L2.77743 8.85067C2.52076 8.59567 2.51909 8.18069 2.77493 7.92403C2.77576 7.92319 2.77659 7.92153 2.77743 7.92069C2.88326 7.82486 3.01326 7.76069 3.15409 7.73569L7.47576 7.11152C7.69159 7.07736 7.87743 6.94236 7.97576 6.74652L9.90407 2.86736C9.98157 2.70986 10.1191 2.58903 10.2857 2.53403C10.4532 2.47819 10.6366 2.49153 10.7941 2.57069C10.9232 2.63486 11.0291 2.73903 11.0957 2.86736L13.0257 6.74986Z" fill="#FFBD54"/>
</g>
</svg>
