<svg width="17" height="16" viewBox="0 0 17 16" fill="none" xmlns="http://www.w3.org/2000/svg">
<path d="M14.3538 8.35378L9.85375 12.8538C9.75993 12.9476 9.63268 13.0003 9.5 13.0003C9.36732 13.0003 9.24007 12.9476 9.14625 12.8538C9.05243 12.76 8.99972 12.6327 8.99972 12.5C8.99972 12.3674 9.05243 12.2401 9.14625 12.1463L12.7931 8.50003H3C2.86739 8.50003 2.74021 8.44736 2.64645 8.35359C2.55268 8.25982 2.5 8.13264 2.5 8.00003C2.5 7.86743 2.55268 7.74025 2.64645 7.64648C2.74021 7.55271 2.86739 7.50003 3 7.50003H12.7931L9.14625 3.85378C9.05243 3.75996 8.99972 3.63272 8.99972 3.50003C8.99972 3.36735 9.05243 3.2401 9.14625 3.14628C9.24007 3.05246 9.36732 2.99976 9.5 2.99976C9.63268 2.99976 9.75993 3.05246 9.85375 3.14628L14.3538 7.64628C14.4002 7.69272 14.4371 7.74786 14.4623 7.80856C14.4874 7.86926 14.5004 7.93433 14.5004 8.00003C14.5004 8.06574 14.4874 8.13081 14.4623 8.1915C14.4371 8.2522 14.4002 8.30735 14.3538 8.35378Z" fill="white"/>
</svg>
