<svg width="27" height="27" viewBox="0 0 27 27" fill="none" xmlns="http://www.w3.org/2000/svg">
<path d="M24.2868 12.9687C24.2259 11.7319 23.9522 10.5134 23.4773 9.36694C22.9346 8.05673 22.1401 6.86555 21.1373 5.86274C20.1344 4.85994 18.9433 4.0654 17.6331 3.52266C16.4866 3.04778 15.2681 2.7741 14.0313 2.71318L13.5 2.7C12.0817 2.7 10.6773 2.97991 9.36694 3.52266C8.05673 4.0654 6.86555 4.85994 5.86274 5.86274C4.85994 6.86555 4.0654 8.05673 3.52266 9.36694C2.97991 10.6773 2.7 12.0817 2.7 13.5L2.71318 14.0313C2.7741 15.2681 3.04778 16.4866 3.52266 17.6331C4.0654 18.9433 4.85994 20.1344 5.86274 21.1373C6.86555 22.1401 8.05673 22.9346 9.36694 23.4773C10.6773 24.0201 12.0817 24.3 13.5 24.3L14.0313 24.2868C15.2681 24.2259 16.4866 23.9522 17.6331 23.4773C18.9433 22.9346 20.1344 22.1401 21.1373 21.1373C22.1401 20.1344 22.9346 18.9433 23.4773 17.6331C24.0201 16.3227 24.3 14.9183 24.3 13.5L24.2868 12.9687ZM12.15 6.75C12.15 6.00442 12.7544 5.4 13.5 5.4C14.2456 5.4 14.85 6.00442 14.85 6.75V10.9767L16.8012 9.67676C17.4215 9.26318 18.2597 9.43081 18.6732 10.0512C19.0868 10.6715 18.9192 11.5097 18.2988 11.9232L14.2488 14.6232C13.8347 14.8994 13.3021 14.9252 12.8632 14.6905C12.4243 14.4556 12.15 13.9979 12.15 13.5V6.75ZM26.9842 14.1645C26.908 15.7103 26.5666 17.2337 25.973 18.6667C25.2946 20.3045 24.2998 21.7927 23.0462 23.0462C21.7927 24.2998 20.3045 25.2946 18.6667 25.973C17.2337 26.5666 15.7103 26.908 14.1645 26.9842L13.5 27C11.7272 27 9.97125 26.6514 8.33335 25.973C6.69551 25.2946 5.20731 24.2998 3.95376 23.0462C2.70021 21.7927 1.70544 20.3045 1.027 18.6667C0.433448 17.2337 0.0919932 15.7103 0.0158203 14.1645L0 13.5C-2.37759e-08 11.7272 0.348563 9.97124 1.027 8.33335C1.70544 6.69551 2.7002 5.20731 3.95376 3.95376C5.20731 2.7002 6.69551 1.70544 8.33335 1.027C9.97124 0.348563 11.7272 0 13.5 0L14.1645 0.0158203C15.7103 0.0919933 17.2337 0.433448 18.6667 1.027C20.3045 1.70544 21.7927 2.70021 23.0462 3.95376C24.2998 5.20731 25.2946 6.69551 25.973 8.33335C26.6514 9.97125 27 11.7272 27 13.5L26.9842 14.1645Z" fill="#FF6643"/>
</svg>
