<svg width="24" height="24" viewBox="0 0 24 24" fill="none" xmlns="http://www.w3.org/2000/svg">
<path d="M6.54 4.25C6.6 5.14 6.75 6.01 6.99 6.84L5.79 8.04C5.38 6.84 5.12 5.57 5.03 4.25H6.54ZM16.4 16.27C17.25 16.51 18.12 16.66 19 16.72V18.21C17.68 18.12 16.41 17.86 15.2 17.46L16.4 16.27ZM7.5 2.25H4C3.45 2.25 3 2.7 3 3.25C3 12.64 10.61 20.25 20 20.25C20.55 20.25 21 19.8 21 19.25V15.76C21 15.21 20.55 14.76 20 14.76C18.76 14.76 17.55 14.56 16.43 14.19C16.331 14.153 16.2256 14.136 16.12 14.14C15.86 14.14 15.61 14.24 15.41 14.43L13.21 16.63C10.3755 15.1803 8.06966 12.8745 6.62 10.04L8.82 7.84C9.1 7.56 9.18 7.17 9.07 6.82C8.69132 5.66789 8.4989 4.46274 8.5 3.25C8.5 2.7 8.05 2.25 7.5 2.25Z" fill="#171717"/>
</svg>
