<svg width="16" height="15" viewBox="0 0 16 15" fill="none" xmlns="http://www.w3.org/2000/svg">
<path d="M12.9598 2.33781C12.3147 1.68969 11.5464 1.17579 10.6998 0.826071C9.85306 0.476349 8.94488 0.297797 8.02814 0.300819C4.18693 0.300819 1.05628 3.41581 1.05628 7.2378C1.05628 8.4628 1.3799 9.65279 1.98492 10.7028L1 14.3008L4.69347 13.3348C5.71357 13.8878 6.8603 14.1818 8.02814 14.1818C11.8693 14.1818 15 11.0668 15 7.2448C15 5.38981 14.2754 3.64681 12.9598 2.33781ZM8.02814 13.0058C6.98693 13.0058 5.96683 12.7258 5.07337 12.2008L4.86231 12.0748L2.66734 12.6488L3.25126 10.5208L3.11055 10.3038C2.53194 9.38474 2.22477 8.32229 2.22412 7.2378C2.22412 4.05981 4.82714 1.46982 8.0211 1.46982C9.56884 1.46982 11.0251 2.07181 12.1156 3.16381C12.6556 3.69851 13.0836 4.33459 13.3746 5.03514C13.6657 5.73568 13.814 6.48676 13.8111 7.2448C13.8251 10.4228 11.2221 13.0058 8.02814 13.0058ZM11.208 8.6938C11.0322 8.6098 10.1739 8.1898 10.0191 8.1268C9.85729 8.0708 9.74472 8.0428 9.62512 8.2108C9.50553 8.3858 9.17487 8.7778 9.07638 8.8898C8.97789 9.0088 8.87236 9.0228 8.69648 8.9318C8.5206 8.8478 7.95779 8.6588 7.29648 8.0708C6.77588 7.6088 6.43116 7.0418 6.32563 6.8668C6.22714 6.6918 6.31156 6.6008 6.40301 6.5098C6.4804 6.4328 6.57889 6.3068 6.66332 6.2088C6.74774 6.1108 6.78291 6.0338 6.8392 5.9218C6.89548 5.8028 6.86734 5.7048 6.82513 5.62081C6.78291 5.53681 6.43116 4.68281 6.29045 4.33281C6.14975 3.99681 6.00201 4.03881 5.89648 4.03181H5.55879C5.4392 4.03181 5.25628 4.07381 5.09447 4.24881C4.9397 4.42381 4.48945 4.84381 4.48945 5.6978C4.48945 6.5518 5.11558 7.3778 5.2 7.4898C5.28442 7.6088 6.43116 9.3588 8.17588 10.1078C8.59095 10.2898 8.91457 10.3948 9.16784 10.4718C9.58291 10.6048 9.96281 10.5838 10.2653 10.5418C10.603 10.4928 11.2995 10.1218 11.4402 9.71579C11.5879 9.3098 11.5879 8.9668 11.5387 8.8898C11.4894 8.8128 11.3839 8.7778 11.208 8.6938Z" fill="#FF6643"/>
</svg>
