<svg width="16" height="15" viewBox="0 0 16 15" fill="none" xmlns="http://www.w3.org/2000/svg">
<path d="M5.06 0.300781H10.94C13.18 0.300781 15 2.12078 15 4.36078V10.2408C15 11.3176 14.5723 12.3502 13.8109 13.1116C13.0495 13.873 12.0168 14.3008 10.94 14.3008H5.06C2.82 14.3008 1 12.4808 1 10.2408V4.36078C1 3.284 1.42775 2.25133 2.18915 1.48993C2.95054 0.72853 3.98322 0.300781 5.06 0.300781ZM4.92 1.70078C4.25165 1.70078 3.61068 1.96628 3.13809 2.43887C2.6655 2.91146 2.4 3.55244 2.4 4.22078V10.3808C2.4 11.7738 3.527 12.9008 4.92 12.9008H11.08C11.7483 12.9008 12.3893 12.6353 12.8619 12.1627C13.3345 11.6901 13.6 11.0491 13.6 10.3808V4.22078C13.6 2.82778 12.473 1.70078 11.08 1.70078H4.92ZM11.675 2.75078C11.9071 2.75078 12.1296 2.84297 12.2937 3.00706C12.4578 3.17116 12.55 3.39372 12.55 3.62578C12.55 3.85785 12.4578 4.08041 12.2937 4.2445C12.1296 4.40859 11.9071 4.50078 11.675 4.50078C11.4429 4.50078 11.2204 4.40859 11.0563 4.2445C10.8922 4.08041 10.8 3.85785 10.8 3.62578C10.8 3.39372 10.8922 3.17116 11.0563 3.00706C11.2204 2.84297 11.4429 2.75078 11.675 2.75078ZM8 3.80078C8.92826 3.80078 9.8185 4.16953 10.4749 4.82591C11.1313 5.48228 11.5 6.37252 11.5 7.30078C11.5 8.22904 11.1313 9.11928 10.4749 9.77565C9.8185 10.432 8.92826 10.8008 8 10.8008C7.07174 10.8008 6.1815 10.432 5.52513 9.77565C4.86875 9.11928 4.5 8.22904 4.5 7.30078C4.5 6.37252 4.86875 5.48228 5.52513 4.82591C6.1815 4.16953 7.07174 3.80078 8 3.80078ZM8 5.20078C7.44305 5.20078 6.9089 5.42203 6.51508 5.81586C6.12125 6.20968 5.9 6.74383 5.9 7.30078C5.9 7.85774 6.12125 8.39188 6.51508 8.78571C6.9089 9.17953 7.44305 9.40078 8 9.40078C8.55695 9.40078 9.0911 9.17953 9.48492 8.78571C9.87875 8.39188 10.1 7.85774 10.1 7.30078C10.1 6.74383 9.87875 6.20968 9.48492 5.81586C9.0911 5.42203 8.55695 5.20078 8 5.20078Z" fill="#FF6643"/>
</svg>
