<svg width="12" height="15" viewBox="0 0 12 15" fill="none" xmlns="http://www.w3.org/2000/svg">
<path d="M10.5885 6.15877C10.5885 3.74768 8.56539 1.73636 6 1.73636C3.43461 1.73636 1.41146 3.74768 1.41146 6.15877C1.41157 7.8562 2.5552 9.53374 3.85351 10.8643C4.48615 11.5126 5.12205 12.0441 5.60017 12.4138C5.75122 12.5306 5.88672 12.6296 6 12.7118C6.11328 12.6296 6.24878 12.5306 6.39983 12.4138C6.87795 12.0441 7.51385 11.5126 8.14649 10.8643C9.4448 9.53374 10.5884 7.8562 10.5885 6.15877ZM12 6.15877C11.9999 8.45887 10.4964 10.4936 9.14778 11.8757C8.45698 12.5836 7.76911 13.1589 7.25463 13.5566C6.99676 13.756 6.78081 13.9124 6.62818 14.0194C6.55206 14.0728 6.49128 14.1136 6.44894 14.1421C6.42775 14.1563 6.4107 14.1676 6.39897 14.1754C6.39322 14.1792 6.38852 14.182 6.38518 14.1842C6.38349 14.1853 6.38193 14.1861 6.38087 14.1868L6.37915 14.1885C6.1768 14.3195 5.92511 14.3359 5.71047 14.2376L5.62085 14.1885L5.61913 14.1868C5.61807 14.1861 5.61651 14.1853 5.61482 14.1842C5.61148 14.182 5.60678 14.1792 5.60103 14.1754C5.5893 14.1676 5.57225 14.1563 5.55106 14.1421C5.50872 14.1136 5.44794 14.0728 5.37182 14.0194C5.21919 13.9124 5.00324 13.756 4.74537 13.5566C4.23089 13.1589 3.54302 12.5836 2.85222 11.8757C1.50355 10.4936 0.000104226 8.45887 0 6.15877C5.01336e-08 2.89242 2.7175 0.300781 6 0.300781C9.2825 0.300781 12 2.89242 12 6.15877Z" fill="#FF6643"/>
<path d="M6.85734 6.30078C6.85734 5.87415 6.49876 5.48175 6 5.48175C5.50124 5.48175 5.14266 5.87415 5.14266 6.30078C5.14269 6.72739 5.50126 7.11982 6 7.11982C6.49874 7.11982 6.85731 6.72739 6.85734 6.30078ZM8 6.30078C7.99996 7.43095 7.07928 8.30078 6 8.30078C4.92072 8.30078 4.00004 7.43095 4 6.30078C4 5.17058 4.9207 4.30078 6 4.30078C7.0793 4.30078 8 5.17058 8 6.30078Z" fill="#FF6643"/>
</svg>
