<svg width="16" height="14" viewBox="0 0 16 14" fill="none" xmlns="http://www.w3.org/2000/svg">
<path d="M5.20016 1.33398H10.8002C12.9335 1.33398 14.6668 3.06732 14.6668 5.20065V10.8007C14.6668 11.8262 14.2594 12.8097 13.5343 13.5348C12.8092 14.2599 11.8257 14.6673 10.8002 14.6673H5.20016C3.06683 14.6673 1.3335 12.934 1.3335 10.8007V5.20065C1.3335 4.17515 1.74088 3.19165 2.46602 2.4665C3.19116 1.74136 4.17466 1.33398 5.20016 1.33398ZM5.06683 2.66732C4.43031 2.66732 3.81986 2.92017 3.36977 3.37026C2.91969 3.82035 2.66683 4.4308 2.66683 5.06732V10.934C2.66683 12.2606 3.74016 13.334 5.06683 13.334H10.9335C11.57 13.334 12.1805 13.0811 12.6306 12.631C13.0806 12.181 13.3335 11.5705 13.3335 10.934V5.06732C13.3335 3.74065 12.2602 2.66732 10.9335 2.66732H5.06683ZM11.5002 3.66732C11.7212 3.66732 11.9331 3.75512 12.0894 3.9114C12.2457 4.06768 12.3335 4.27964 12.3335 4.50065C12.3335 4.72166 12.2457 4.93363 12.0894 5.08991C11.9331 5.24619 11.7212 5.33398 11.5002 5.33398C11.2791 5.33398 11.0672 5.24619 10.9109 5.08991C10.7546 4.93363 10.6668 4.72166 10.6668 4.50065C10.6668 4.27964 10.7546 4.06768 10.9109 3.9114C11.0672 3.75512 11.2791 3.66732 11.5002 3.66732ZM8.00016 4.66732C8.88422 4.66732 9.73206 5.01851 10.3572 5.64363C10.9823 6.26875 11.3335 7.1166 11.3335 8.00065C11.3335 8.88471 10.9823 9.73255 10.3572 10.3577C9.73206 10.9828 8.88422 11.334 8.00016 11.334C7.11611 11.334 6.26826 10.9828 5.64314 10.3577C5.01802 9.73255 4.66683 8.88471 4.66683 8.00065C4.66683 7.1166 5.01802 6.26875 5.64314 5.64363C6.26826 5.01851 7.11611 4.66732 8.00016 4.66732ZM8.00016 6.00065C7.46973 6.00065 6.96102 6.21136 6.58595 6.58644C6.21088 6.96151 6.00016 7.47022 6.00016 8.00065C6.00016 8.53108 6.21088 9.03979 6.58595 9.41486C6.96102 9.78994 7.46973 10.0007 8.00016 10.0007C8.5306 10.0007 9.0393 9.78994 9.41438 9.41486C9.78945 9.03979 10.0002 8.53108 10.0002 8.00065C10.0002 7.47022 9.78945 6.96151 9.41438 6.58644C9.0393 6.21136 8.5306 6.00065 8.00016 6.00065Z" fill="#D6CCCB"/>
</svg>
