<svg width="12" height="14" viewBox="0 0 12 14" fill="none" xmlns="http://www.w3.org/2000/svg">
<path d="M10.5885 5.85799C10.5885 3.4469 8.56539 1.43558 6 1.43558C3.43461 1.43558 1.41146 3.4469 1.41146 5.85799C1.41157 7.55542 2.5552 9.23296 3.85351 10.5635C4.48615 11.2118 5.12205 11.7434 5.60017 12.113C5.75122 12.2298 5.88672 12.3289 6 12.411C6.11328 12.3289 6.24878 12.2298 6.39983 12.113C6.87795 11.7434 7.51385 11.2118 8.14649 10.5635C9.4448 9.23296 10.5884 7.55542 10.5885 5.85799ZM12 5.85799C11.9999 8.15809 10.4964 10.1928 9.14778 11.5749C8.45698 12.2828 7.76911 12.8581 7.25463 13.2559C6.99676 13.4552 6.78081 13.6116 6.62818 13.7186C6.55206 13.772 6.49128 13.8128 6.44894 13.8413C6.42775 13.8556 6.4107 13.8669 6.39897 13.8746C6.39322 13.8784 6.38852 13.8812 6.38518 13.8834C6.38349 13.8845 6.38193 13.8853 6.38087 13.886L6.37915 13.8878C6.1768 14.0187 5.92511 14.0351 5.71047 13.9368L5.62085 13.8878L5.61913 13.886C5.61807 13.8853 5.61651 13.8845 5.61482 13.8834C5.61148 13.8812 5.60678 13.8784 5.60103 13.8746C5.5893 13.8669 5.57225 13.8556 5.55106 13.8413C5.50872 13.8128 5.44794 13.772 5.37182 13.7186C5.21919 13.6116 5.00324 13.4552 4.74537 13.2559C4.23089 12.8581 3.54302 12.2828 2.85222 11.5749C1.50355 10.1928 0.000104226 8.15809 0 5.85799C5.01336e-08 2.59164 2.7175 0 6 0C9.2825 0 12 2.59164 12 5.85799Z" fill="#D6CCCB"/>
<path d="M6.85734 6C6.85734 5.57337 6.49876 5.18097 6 5.18097C5.50124 5.18097 5.14266 5.57337 5.14266 6C5.14269 6.42661 5.50126 6.81903 6 6.81903C6.49874 6.81903 6.85731 6.42661 6.85734 6ZM8 6C7.99996 7.13017 7.07928 8 6 8C4.92072 8 4.00004 7.13017 4 6C4 4.8698 4.9207 4 6 4C7.0793 4 8 4.8698 8 6Z" fill="#D6CCCB"/>
</svg>
